<svg version="1.2" xmlns="http://www.w3.org/2000/svg" viewBox="0 0 64 64" width="64" height="64"><style>.a{fill:#fff;stroke:#4c5159;stroke-miterlimit:10;stroke-width:2}.b{fill:none;stroke:#4c5159;stroke-miterlimit:10;stroke-width:2}</style><path class="a" d="m23.3 10.9c0 1.7-1.4 1.7-1.4 3.3 0 1.7 1.4 1.7 1.4 3.3 0 1.7-1.4 1.7-1.4 3.3 0 1.7 1.4 1.7 1.4 3.3"/><path class="a" d="m42.4 12c0 1.7-1.3 1.7-1.3 3.3 0 1.7 1.3 1.7 1.3 3.3 0 1.7-1.3 1.7-1.3 3.3 0 1.7 1.3 1.7 1.3 3.3"/><path class="a" d="m32.9 5.3c0 1.8-1.4 1.8-1.4 3.4 0 1.7 1.4 1.7 1.4 3.3 0 1.7-1.4 1.7-1.4 3.3 0 1.7 1.4 1.7 1.4 3.3"/><path class="b" d="m60.4 38.5c0 5.7-13.3 11.2-28.8 11.2-15.4 0-27.8-5.3-27.8-11.9 0-6.7 11.7-7.6 27.8-6.8 5.1 0.3 11.5 3.3 15.6 3.5 10.3 0.2 13.2 0.6 13.2 4z"/><path fill-rule="evenodd" class="b" d="m3.9 39.1l-0.3 7.6c0 6.5 12.6 12 27.9 12 15.5 0 28.7-5.6 28.7-11.2v-9.1"/><path fill-rule="evenodd" class="b" d="m19.6 40.8c-3.7 0-6.8-0.8-6.8-1.9 0-1.1 3.1-2 6.8-2 3.7 0 6.8 0.9 6.8 2 0 1.1-3.1 1.9-6.8 1.9z"/><path fill-rule="evenodd" class="b" d="m5 40.8l9.7-9.7"/><path fill-rule="evenodd" class="b" d="m16.8 37l6.4-6.4"/><path fill-rule="evenodd" class="b" d="m13.8 40l-5 5"/><path fill-rule="evenodd" class="b" d="m24.4 37.3l6.5-6.5"/><path fill-rule="evenodd" class="b" d="m20.9 40.7l-6.6 6.7"/><path fill-rule="evenodd" class="b" d="m20.8 48.7l16.6-16.5"/><path fill-rule="evenodd" class="a" d="m27.8 49.7l15.9-15.9"/><path fill-rule="evenodd" class="a" d="m36.1 49.4l14.7-14.8"/><path fill-rule="evenodd" class="a" d="m45.3 48.1l12.6-12.7"/></svg>