<?xml version="1.0" ?><svg xmlns="http://www.w3.org/2000/svg" viewBox="0 0 48 48"><title/><g id="Icons"><path d="M29.731,26.1a4.976,4.976,0,0,0-7.852-1.052l-2.828,2.828a4.929,4.929,0,0,0-.889,5.819.971.971,0,0,0,.109.2,4.976,4.976,0,0,0,7.85,1.048l2.828-2.828a4.929,4.929,0,0,0,.889-5.819A.934.934,0,0,0,29.731,26.1Zm-9.266,3.19,2.828-2.828a3,3,0,0,1,4.242,0c.012.012.021.027.032.039a13.95,13.95,0,0,1-3.974,2.572A15.965,15.965,0,0,0,19.6,31.565c0-.051-.015-.1-.015-.151A2.976,2.976,0,0,1,20.465,29.293Zm7.07,1.414-2.828,2.828a3.072,3.072,0,0,1-4.242,0c-.013-.012-.021-.028-.034-.041a13.968,13.968,0,0,1,4.013-2.607A16.035,16.035,0,0,0,28.4,28.43c0,.052.015.1.015.156A2.976,2.976,0,0,1,27.535,30.707Z"/><path d="M41.242,38.586l-.317-.317c1.507-7.4,1.164-11.866-1.558-19.442A2.535,2.535,0,0,0,41,16.465v-4.93A2.539,2.539,0,0,0,38.465,9H35.357L29.9,4.534a9.347,9.347,0,0,0-11.8,0L12.643,9H9.535A2.539,2.539,0,0,0,7,11.535v4.93a2.535,2.535,0,0,0,1.633,2.362C5.911,26.4,5.568,30.872,7.075,38.269l-.317.317a4,4,0,1,0,5.656,5.656l.4-.4a53.483,53.483,0,0,0,22.364,0l.4.4a4,4,0,1,0,5.656-5.656ZM19.366,6.083a7.343,7.343,0,0,1,9.268,0L32.2,9H15.8ZM9,11.535A.536.536,0,0,1,9.535,11h28.93a.536.536,0,0,1,.535.535V13H26a1,1,0,0,0,0,2H39v1.465a.536.536,0,0,1-.535.535H9.535A.536.536,0,0,1,9,16.465ZM39.828,42.828a2.047,2.047,0,0,1-2.828,0l-.78-.78a1,1,0,0,0-.9-.274,51.975,51.975,0,0,1-22.636,0,.993.993,0,0,0-.9.274l-.78.78a2.047,2.047,0,0,1-2.828,0,2,2,0,0,1,0-2.828l.7-.7a1,1,0,0,0,.272-.914C7.548,30.849,7.854,26.744,10.7,19H32.323l1.334,3.336a1,1,0,1,0,1.858-.742L34.477,19h2.828c2.841,7.744,3.147,11.849,1.552,19.387a1,1,0,0,0,.272.914l.7.7a2,2,0,0,1,0,2.828Z"/><path d="M12.351,28.109a1,1,0,0,0-1.985-.252,24.154,24.154,0,0,0,.067,6.331,1,1,0,0,0,.99.871.972.972,0,0,0,.131-.009,1,1,0,0,0,.861-1.121A21.959,21.959,0,0,1,12.351,28.109Z"/></g></svg>